<svg height="512" viewBox="0 0 64 64" width="512" xmlns="http://www.w3.org/2000/svg"><g id="Check_out" data-name="Check out"><path d="m61 41v4h-1-22-1v-4h6 12z" fill="#fee9ab"/><path d="m38 45h22v16h-22z" fill="#ff7956"/><path d="m42 49h14v8h-14z" fill="#c0ab91"/><circle cx="54" cy="19" fill="#c0ab91" r="2"/><path d="m49 31h2a4 4 0 0 1 4 4v6h-12v-6a4 4 0 0 1 4-4z" fill="#bdfdff"/><path d="m54 24v2a5 5 0 0 1 -10 0v-2l3-1z" fill="#ffc477"/><path d="m54 24-7-1-3 1a5 5 0 1 1 10 0z" fill="#c0ab91"/><circle cx="32" cy="9" fill="#46f8ff" r="6"/><path d="m32 45v16h-16v-16h2 8z" fill="#ffde55"/><path d="m18 43v2h-4v-14a4 4 0 0 1 4 4z" fill="#ff7956"/><path d="m11 61h-5v-16h2 6 2v16z" fill="#9cdd05"/><path d="m15 23v4a4 4 0 0 1 -8 0v-4z" fill="#ffc477"/><path d="m15 21v2h-10a2.006 2.006 0 0 1 -2-2v-2h10a2.006 2.006 0 0 1 2 2z" fill="#c0ab91"/><path d="m14 31v14h-6v-14h3z" fill="#fee9ab"/><path d="m8 31v14h-4v-10a4 4 0 0 1 4-4z" fill="#ff7956"/><path d="m32 16a7 7 0 1 0 -7-7 7.009 7.009 0 0 0 7 7zm0-12a5 5 0 1 1 -5 5 5.006 5.006 0 0 1 5-5z"/><path d="m61 40h-5v-5a5 5 0 0 0 -2.975-4.563 5.978 5.978 0 0 0 1.975-4.437v-2a5.968 5.968 0 0 0 -.375-2.068 3 3 0 1 0 -3.557-3.557 5.983 5.983 0 0 0 -8.068 5.625v2a5.978 5.978 0 0 0 1.975 4.437 5 5 0 0 0 -2.975 4.563v5h-5a1 1 0 0 0 -1 1v4a1 1 0 0 0 1 1v15a1 1 0 0 0 1 1h22a1 1 0 0 0 1-1v-15a1 1 0 0 0 1-1v-4a1 1 0 0 0 -1-1zm-16-15.28 2.092-.7 5.908.848v1.132a4 4 0 0 1 -8 0zm9-6.72a1 1 0 1 1 -1 1 1 1 0 0 1 1-1zm-5 2a3.993 3.993 0 0 1 3.8 2.818l-5.66-.808a1 1 0 0 0 -.458.042l-1.391.463a4 4 0 0 1 3.709-2.515zm-5 15a3 3 0 0 1 3-3h1v2h-1v2h4v-2h-1v-2h1a3 3 0 0 1 3 3v5h-10zm-6 7h22v2h-22zm21 18h-20v-14h20z"/><path d="m32 44h-5v-1a3 3 0 0 0 -3-3h-4a2.966 2.966 0 0 0 -1 .184v-5.184a5 5 0 0 0 -4.1-4.909 4.947 4.947 0 0 0 1.1-3.091v-6a3 3 0 0 0 -3-3h-10a1 1 0 0 0 -1 1v2a3 3 0 0 0 3 3h1v3a4.947 4.947 0 0 0 1.1 3.091 5 5 0 0 0 -4.1 4.909v10a1 1 0 0 0 1 1h1v15a1 1 0 0 0 1 1h26a1 1 0 0 0 1-1v-16a1 1 0 0 0 -1-1zm-12-2h4a1 1 0 0 1 1 1v1h-6v-1a1 1 0 0 1 1-1zm-11-10h4v12h-4zm8 3v9h-2v-11.816a3 3 0 0 1 2 2.816zm-13-14v-1h9a1 1 0 0 1 1 1v1h-9a1 1 0 0 1 -1-1zm10 3v3a3 3 0 0 1 -6 0v-3zm-9 11a3 3 0 0 1 2-2.816v11.816h-2zm7 25v-11h-2v11h-3v-14h8v14zm19 0h-14v-14h14z"/><path d="m27 48h2v10h-2z"/><path d="m23 48h2v10h-2z"/><path d="m19 48h2v10h-2z"/><path d="m31 5h2v4h-2z"/><path d="m42 58h14a1 1 0 0 0 1-1v-8a1 1 0 0 0 -1-1h-14a1 1 0 0 0 -1 1v8a1 1 0 0 0 1 1zm1-8h12v6h-12z"/><path d="m24.535 16.879-1.414-1.414-2.828 2.828a1 1 0 0 0 0 1.414l2.828 2.828 1.414-1.414-1.121-1.121h9.586v-2h-9.586z"/><path d="m24.535 26.879-1.414-1.414-2.828 2.828a1 1 0 0 0 0 1.414l2.828 2.828 1.414-1.414-1.121-1.121h9.586v-2h-9.586z"/></g></svg>